<?xml version="1.0" encoding="UTF-8"?><svg id="Layer_2" xmlns="http://www.w3.org/2000/svg" xmlns:xlink="http://www.w3.org/1999/xlink" viewBox="0 0 162.74 226.99"><defs><style>.cls-1{fill:url(#linear-gradient);}</style><linearGradient id="linear-gradient" x1="81.37" y1="226.99" x2="81.37" y2="0" gradientTransform="matrix(1, 0, 0, 1, 0, 0)" gradientUnits="userSpaceOnUse"><stop offset="0" stop-color="#00b21e"/><stop offset="1" stop-color="#67ff80"/></linearGradient></defs><g id="Layer_1-2"><path class="cls-1" d="M1.16,202.84c5.96,4.03,11.74,8.39,17.93,12.02,9.42,5.52,19.54,9.26,30.2,11.59,6.13,1.34,11.51,.11,16.73-2.98,10.61-6.28,20.04-14.19,28.98-22.74,18.56-17.75,33.97-38.02,45.68-61.24,15-29.75,22.24-61.44,22.06-94.95-.03-5.42-2.51-10.03-5.51-14.25-5.62-7.91-13.02-13.83-21.19-18.56-6.96-4.04-14.27-7.47-21.55-10.88-4.41-2.07-8.41-.21-10.51,4.33-7.07,15.27-12.88,31.05-17.72,47.21-1.11,3.69,.61,7.28,4.09,8.59,8.81,3.31,17.15,7.57,24.96,12.93,3,2.06,4,4.48,3.01,8.08-7.86,28.63-19.72,55.12-39.16,77.5-2.16,2.49-4.41,4.9-6.72,7.25-2.62,2.66-4.71,3.18-7.87,1.27-4.9-2.96-9.62-6.24-14.32-9.52-2.41-1.68-4.64-3.62-6.93-5.48-3.73-3.02-7.77-2.76-10.86,1.01-2.86,3.49-5.49,7.19-8.22,10.79-7.07,9.3-14.11,18.61-21.24,27.86-1.55,2.02-2.92,4.01-2.99,6.69l1.16,3.5Z"/></g></svg>